<svg xmlns="http://www.w3.org/2000/svg" id="Layer_1" data-name="Layer 1" viewBox="0 0 900 535.43" style="
    --animation-time: 3.5s;
"><defs><style>.cls-1{animation: dash var(--animation-time) forwards;fill:none;stroke:#000;stroke-miterlimit:10;}#month-text{opacity: 0; animation: fade-in var(--animation-time) ease-in-out forwards;}.cls-2{isolation:isolate;font-size:57.95px;font-family:ArialMT, Arial;}.cls-3{fill:#29b6f6;    opacity: 0;
    animation: fade-in var(--animation-time) ease-in-out forwards;
    transform: translateY(20pt);}@keyframes fade-in {to{opacity: 1; transform: translateY(0pt);}}@keyframes dash {to{stroke-dashoffset: 0;}}</style></defs><path xmlns="http://www.w3.org/2000/svg" class="cls-1" d="M679,135.1h430a19,19,0,0,1,19,19V649.53a19,19,0,0,1-19,19H679" transform="translate(-229 -134.1)" style="stroke-dasharray: var(--path-length);stroke-dashoffset: var(--path-length);animation: dash var(--animation-time) ease-in-out forwards;--path-length: 1415.1290283203125;stroke: rgb(41, 182, 246);" fill="none" stroke="#29b6f6" stroke-width="3"></path>
<path xmlns="http://www.w3.org/2000/svg" class="cls-1" d="M679,135.1h-430a19,19,0,0,0,-19,19V649.53a19,19,0,0,0,19,19H679" transform="translate(-229 -134.1)" style="
    stroke-dasharray: var(--path-length);
    stroke-dashoffset: var(--path-length);
    animation: dash var(--animation-time) ease-in-out forwards;
    --path-length: 1415.1290283203125;
    stroke: rgb(41, 182, 246);
" fill="none" stroke="#29b6f6" stroke-width="3"></path><path class="cls-1" d="M140,118.4H36a20,20,0,0,0-20,20v360a20,20,0,0,0,20,20H140Z" style="stroke-dasharray: 1030.84; stroke-dashoffset: 1030.84;"></path><rect class="cls-1" x="388" y="118.4" width="124" height="400" style="stroke-dasharray: 1048; stroke-dashoffset: 1048;"></rect><rect class="cls-1" x="140" y="118.4" width="124" height="400" style="stroke-dasharray: 1048; stroke-dashoffset: 1048;"></rect><rect class="cls-1" x="264" y="118.4" width="124" height="400" style="stroke-dasharray: 1048; stroke-dashoffset: 1048;"></rect><rect class="cls-1" x="636" y="118.4" width="124" height="400" style="stroke-dasharray: 1048; stroke-dashoffset: 1048;"></rect><rect class="cls-1" x="512" y="118.4" width="124" height="400" style="stroke-dasharray: 1048; stroke-dashoffset: 1048;"></rect><path class="cls-1" d="M760,118.4H864a20,20,0,0,1,20,20v360a20,20,0,0,1,-20,20H760Z" style="stroke-dasharray: 1030.84; stroke-dashoffset: 1030.84;"></path><text id="month-text" class="cls-2" x="50%" y="85" text-anchor="middle"></text><path class="cls-1" d="M36.5,118.78h827a20,20,0,0,1,20,20V198.4H16.5V138.78a20,20,0,0,1,20-20Z" style="stroke-dasharray: 1875.9; stroke-dashoffset: 1875.9;"></path><rect class="cls-1" x="16.5" y="198.4" width="867" height="80" style="stroke-dasharray: 1894; stroke-dashoffset: 1894;"></rect><rect class="cls-1" x="16" y="277.9" width="868" height="81" style="stroke-dasharray: 1898; stroke-dashoffset: 1898;"></rect><rect class="cls-1" x="17" y="278.9" width="866" height="79" style="stroke-dasharray: 1890; stroke-dashoffset: 1890;"></rect><rect class="cls-1" x="16.5" y="358.4" width="867" height="80" style="stroke-dasharray: 1894; stroke-dashoffset: 1894;"></rect><path class="cls-1" d="M16.5,438.4h867v59.5a20,20,0,0,1-20,20H36.5a20,20,0,0,1-20-20V438.4Z" style="stroke-dasharray: 1875.84; stroke-dashoffset: 1875.84;"></path><g id="EVENTS"><path class="cls-3" d="M32,127.9H88a5,5,0,0,1,5,5h0a5,5,0,0,1-5,5H32a5,5,0,0,1-5-5h0A5,5,0,0,1,32,127.9Z"></path><path class="cls-3" d="M32,148.9H88a5,5,0,0,1,5,5h0a5,5,0,0,1-5,5H32a5,5,0,0,1-5-5h0A5,5,0,0,1,32,148.9Z"></path><path class="cls-3" d="M279,206.9h56a5,5,0,0,1,5,5h0a5,5,0,0,1-5,5H279a5,5,0,0,1-5-5h0A5,5,0,0,1,279,206.9Z"></path><path class="cls-3" d="M155,364.9h56a5,5,0,0,1,5,5h0a5,5,0,0,1-5,5H155a5,5,0,0,1-5-5h0A5,5,0,0,1,155,364.9Z"></path><path class="cls-3" d="M155,285.9H593a5,5,0,0,1,5,5h0a5,5,0,0,1-5,5H155a5,5,0,0,1-5-5h0A5,5,0,0,1,155,285.9Z"></path></g></svg>
